# Blender v3.6.9 OBJ File: ''
# www.blender.org
mtllib halfsphere.mtl
o Sphere
v -0.115921 0.023058 -0.044405
v -0.118192 -0.000000 -0.044405
v -0.115921 -0.000000 -0.021346
v -0.113694 0.023058 -0.021790
v -0.045230 -0.109195 -0.044405
v -0.023058 -0.115921 -0.044405
v -0.022615 -0.115921 -0.039906
v -0.044361 -0.109195 -0.035581
v -0.109195 0.045230 -0.044405
v -0.107097 0.045230 -0.023102
v -0.065664 -0.098273 -0.044405
v -0.064402 -0.098273 -0.031594
v -0.098273 0.065664 -0.044405
v -0.096385 0.065664 -0.025232
v -0.083575 -0.083575 -0.044405
v -0.081969 -0.083575 -0.028100
v -0.083575 0.083575 -0.044405
v -0.081969 0.083575 -0.028100
v -0.098273 -0.065664 -0.044405
v -0.096385 -0.065664 -0.025232
v -0.065664 0.098273 -0.044405
v -0.064402 0.098273 -0.031594
v -0.109195 -0.045230 -0.044405
v -0.107097 -0.045230 -0.023102
v -0.045230 0.109195 -0.044405
v -0.044361 0.109195 -0.035581
v -0.115921 -0.023058 -0.044405
v -0.113694 -0.023058 -0.021790
v -0.023058 0.115921 -0.044405
v -0.022615 0.115921 -0.039906
v 0.000000 -0.118192 -0.044405
v 0.000000 0.118192 -0.044405
v -0.107097 -0.023058 -0.000044
v -0.109195 0.000000 0.000826
v -0.021303 -0.115921 -0.035581
v -0.021303 0.115921 -0.035581
v -0.107097 0.023058 -0.000044
v -0.041787 -0.109195 -0.027096
v -0.100883 0.045230 -0.002617
v -0.060666 -0.098273 -0.019276
v -0.090793 0.065664 -0.006797
v -0.077213 -0.083575 -0.012422
v -0.077213 0.083575 -0.012422
v -0.090793 -0.065664 -0.006797
v -0.060666 0.098273 -0.019276
v -0.100883 -0.045230 -0.002617
v -0.041787 0.109195 -0.027096
v -0.081711 0.065664 0.010193
v -0.069490 0.083575 0.002027
v -0.069490 -0.083575 0.002027
v -0.081711 -0.065664 0.010193
v -0.054598 0.098273 -0.007924
v -0.090793 -0.045230 0.016261
v -0.037608 0.109195 -0.019276
v -0.096385 -0.023058 0.019998
v -0.019172 0.115921 -0.031594
v -0.098273 0.000000 0.021259
v -0.019172 -0.115921 -0.031594
v -0.096385 0.023058 0.019998
v -0.037608 -0.109195 -0.019276
v -0.090793 0.045230 0.016261
v -0.054598 -0.098273 -0.007924
v -0.016305 -0.115921 -0.028100
v -0.016305 0.115921 -0.028100
v -0.083575 0.000000 0.039170
v -0.081969 0.023058 0.037564
v -0.031983 -0.109195 -0.012422
v -0.077213 0.045230 0.032808
v -0.046432 -0.098273 0.002027
v -0.069490 0.065664 0.025085
v -0.059096 -0.083575 0.014691
v -0.059096 0.083575 0.014691
v -0.069490 -0.065664 0.025085
v -0.046432 0.098273 0.002027
v -0.077213 -0.045230 0.032808
v -0.031983 0.109195 -0.012422
v -0.081969 -0.023058 0.037564
v -0.046432 -0.083575 0.025085
v -0.054598 -0.065664 0.037307
v -0.046432 0.083575 0.025085
v -0.036481 0.098273 0.010193
v -0.060666 -0.045230 0.046388
v -0.025129 0.109195 -0.006797
v -0.064402 -0.023058 0.051980
v -0.012810 0.115921 -0.025232
v -0.065664 0.000000 0.053869
v -0.012810 -0.115921 -0.025233
v -0.064402 0.023058 0.051980
v -0.025129 -0.109195 -0.006797
v -0.060666 0.045230 0.046388
v -0.036481 -0.098273 0.010193
v -0.054598 0.065664 0.037307
v -0.045230 0.000000 0.064791
v -0.044361 0.023058 0.062693
v -0.008824 -0.115921 -0.023102
v -0.017309 -0.109195 -0.002617
v -0.041787 0.045230 0.056479
v -0.025129 -0.098273 0.016261
v -0.037608 0.065664 0.046388
v -0.031983 -0.083575 0.032808
v -0.031983 0.083575 0.032808
v -0.037608 -0.065664 0.046388
v -0.025129 0.098273 0.016261
v -0.041787 -0.045230 0.056479
v -0.017309 0.109195 -0.002617
v -0.044361 -0.023058 0.062693
v -0.008824 0.115921 -0.023102
v -0.016305 0.083575 0.037564
v -0.012810 0.098273 0.019998
v -0.019172 -0.065664 0.051980
v -0.021303 -0.045230 0.062693
v -0.008824 0.109195 -0.000044
v -0.022615 -0.023058 0.069289
v -0.004498 0.115921 -0.021790
v -0.023058 0.000000 0.071517
v -0.004498 -0.115921 -0.021790
v -0.022615 0.023058 0.069289
v -0.008824 -0.109195 -0.000044
v -0.021303 0.045230 0.062693
v -0.012810 -0.098273 0.019998
v -0.019172 0.065664 0.051980
v -0.016305 -0.083575 0.037564
v 0.000000 0.023058 0.071517
v 0.000000 0.045230 0.064791
v 0.000000 -0.109195 0.000826
v 0.000000 -0.098273 0.021259
v 0.000000 0.065664 0.053869
v 0.000000 -0.083575 0.039170
v 0.000000 0.083575 0.039170
v 0.000000 -0.065664 0.053869
v 0.000000 0.098273 0.021259
v 0.000000 -0.045230 0.064791
v 0.000000 0.109195 0.000826
v 0.000000 -0.023058 0.071517
v 0.000000 0.115921 -0.021346
v 0.000000 0.000000 0.073788
v 0.000000 -0.115921 -0.021347
v 0.012810 0.098273 0.019998
v 0.008824 0.109195 -0.000044
v 0.021303 -0.045230 0.062693
v 0.022615 -0.023058 0.069289
v 0.004498 0.115921 -0.021790
v 0.023058 0.000000 0.071517
v 0.004498 -0.115921 -0.021790
v 0.022615 0.023058 0.069289
v 0.008824 -0.109195 -0.000044
v 0.021303 0.045230 0.062693
v 0.012810 -0.098273 0.019998
v 0.019172 0.065664 0.051980
v 0.016305 -0.083575 0.037564
v 0.016305 0.083575 0.037564
v 0.019172 -0.065664 0.051980
v 0.017309 -0.109195 -0.002617
v 0.025129 -0.098273 0.016261
v 0.041787 0.045230 0.056479
v 0.037608 0.065664 0.046388
v 0.031983 -0.083575 0.032808
v 0.031983 0.083575 0.032808
v 0.037608 -0.065664 0.046388
v 0.025129 0.098273 0.016261
v 0.041787 -0.045230 0.056479
v 0.017309 0.109195 -0.002617
v 0.044361 -0.023058 0.062693
v 0.008824 0.115921 -0.023102
v 0.045230 0.000000 0.064791
v 0.008824 -0.115921 -0.023102
v 0.044361 0.023058 0.062693
v 0.060666 -0.045230 0.046388
v 0.064402 -0.023058 0.051980
v 0.025129 0.109195 -0.006797
v 0.012810 0.115921 -0.025232
v 0.065664 0.000000 0.053869
v 0.012810 -0.115921 -0.025233
v 0.064402 0.023058 0.051980
v 0.025129 -0.109195 -0.006797
v 0.060666 0.045230 0.046388
v 0.036481 -0.098273 0.010193
v 0.054598 0.065664 0.037307
v 0.046432 -0.083575 0.025085
v 0.046432 0.083575 0.025085
v 0.054598 -0.065664 0.037307
v 0.036481 0.098273 0.010193
v 0.077213 0.045230 0.032808
v 0.069490 0.065664 0.025085
v 0.046432 -0.098273 0.002027
v 0.059096 -0.083575 0.014691
v 0.059096 0.083575 0.014691
v 0.069490 -0.065664 0.025085
v 0.046432 0.098273 0.002027
v 0.077213 -0.045230 0.032808
v 0.031983 0.109195 -0.012422
v 0.081969 -0.023058 0.037564
v 0.016305 0.115921 -0.028100
v 0.083575 0.000000 0.039170
v 0.016305 -0.115921 -0.028100
v 0.081969 0.023058 0.037564
v 0.031983 -0.109195 -0.012422
v 0.037608 0.109195 -0.019276
v 0.019172 0.115921 -0.031594
v 0.096385 -0.023058 0.019998
v 0.098273 0.000000 0.021259
v 0.019172 -0.115921 -0.031594
v 0.096385 0.023058 0.019998
v 0.037608 -0.109195 -0.019276
v 0.090793 0.045230 0.016261
v 0.054598 -0.098273 -0.007924
v 0.081711 0.065664 0.010193
v 0.069490 -0.083575 0.002027
v 0.069490 0.083575 0.002027
v 0.081711 -0.065664 0.010193
v 0.054598 0.098273 -0.007924
v 0.090793 -0.045230 0.016261
v 0.060666 -0.098273 -0.019276
v 0.077213 -0.083575 -0.012422
v 0.090793 0.065664 -0.006797
v 0.077213 0.083575 -0.012422
v 0.090793 -0.065664 -0.006797
v 0.060666 0.098273 -0.019276
v 0.100883 -0.045230 -0.002617
v 0.041787 0.109195 -0.027096
v 0.107097 -0.023058 -0.000044
v 0.021303 0.115921 -0.035581
v 0.109195 0.000000 0.000826
v 0.021303 -0.115921 -0.035581
v 0.107097 0.023058 -0.000044
v 0.041787 -0.109195 -0.027096
v 0.100883 0.045230 -0.002617
v 0.113694 -0.023058 -0.021790
v 0.115921 -0.000000 -0.021347
v 0.022615 -0.115921 -0.039906
v 0.022615 0.115921 -0.039906
v 0.113694 0.023058 -0.021790
v 0.044361 -0.109195 -0.035581
v 0.107097 0.045230 -0.023102
v 0.064402 -0.098273 -0.031594
v 0.096385 0.065664 -0.025233
v 0.081969 -0.083575 -0.028100
v 0.081969 0.083575 -0.028100
v 0.096385 -0.065664 -0.025233
v 0.064402 0.098273 -0.031594
v 0.107097 -0.045230 -0.023102
v 0.044361 0.109195 -0.035581
v 0.098273 0.065664 -0.044405
v 0.083575 0.083575 -0.044405
v 0.083575 -0.083575 -0.044405
v 0.098273 -0.065664 -0.044405
v 0.065664 0.098273 -0.044405
v 0.109195 -0.045230 -0.044405
v 0.045230 0.109195 -0.044405
v 0.115921 -0.023058 -0.044405
v 0.023058 0.115921 -0.044405
v 0.118192 -0.000000 -0.044405
v 0.023058 -0.115921 -0.044405
v 0.115921 0.023058 -0.044405
v 0.045230 -0.109195 -0.044405
v 0.109195 0.045230 -0.044405
v 0.065664 -0.098273 -0.044405
vt 0.750000 0.437500
vt 0.750000 0.500000
vt 0.718750 0.500000
vt 0.718750 0.437500
vt 0.750000 0.875000
vt 0.750000 0.937500
vt 0.718750 0.937500
vt 0.718750 0.875000
vt 0.750000 0.375000
vt 0.718750 0.375000
vt 0.750000 0.812500
vt 0.718750 0.812500
vt 0.750000 0.312500
vt 0.718750 0.312500
vt 0.750000 0.750000
vt 0.718750 0.750000
vt 0.750000 0.250000
vt 0.718750 0.250000
vt 0.750000 0.687500
vt 0.718750 0.687500
vt 0.750000 0.187500
vt 0.718750 0.187500
vt 0.750000 0.625000
vt 0.718750 0.625000
vt 0.750000 0.125000
vt 0.718750 0.125000
vt 0.750000 0.562500
vt 0.718750 0.562500
vt 0.750000 0.062500
vt 0.718750 0.062500
vt 0.734375 1.000000
vt 0.734375 0.000000
vt 0.687500 0.562500
vt 0.687500 0.500000
vt 0.703125 1.000000
vt 0.687500 0.937500
vt 0.703125 0.000000
vt 0.687500 0.062500
vt 0.687500 0.437500
vt 0.687500 0.875000
vt 0.687500 0.375000
vt 0.687500 0.812500
vt 0.687500 0.312500
vt 0.687500 0.750000
vt 0.687500 0.250000
vt 0.687500 0.687500
vt 0.687500 0.187500
vt 0.687500 0.625000
vt 0.687500 0.125000
vt 0.656250 0.312500
vt 0.656250 0.250000
vt 0.656250 0.750000
vt 0.656250 0.687500
vt 0.656250 0.187500
vt 0.656250 0.625000
vt 0.656250 0.125000
vt 0.656250 0.562500
vt 0.656250 0.062500
vt 0.656250 0.500000
vt 0.671875 1.000000
vt 0.656250 0.937500
vt 0.671875 0.000000
vt 0.656250 0.437500
vt 0.656250 0.875000
vt 0.656250 0.375000
vt 0.656250 0.812500
vt 0.640625 1.000000
vt 0.625000 0.937500
vt 0.640625 0.000000
vt 0.625000 0.062500
vt 0.625000 0.500000
vt 0.625000 0.437500
vt 0.625000 0.875000
vt 0.625000 0.375000
vt 0.625000 0.812500
vt 0.625000 0.312500
vt 0.625000 0.750000
vt 0.625000 0.250000
vt 0.625000 0.687500
vt 0.625000 0.187500
vt 0.625000 0.625000
vt 0.625000 0.125000
vt 0.625000 0.562500
vt 0.593750 0.750000
vt 0.593750 0.687500
vt 0.593750 0.250000
vt 0.593750 0.187500
vt 0.593750 0.625000
vt 0.593750 0.125000
vt 0.593750 0.562500
vt 0.593750 0.062500
vt 0.593750 0.500000
vt 0.609375 1.000000
vt 0.593750 0.937500
vt 0.609375 0.000000
vt 0.593750 0.437500
vt 0.593750 0.875000
vt 0.593750 0.375000
vt 0.593750 0.812500
vt 0.593750 0.312500
vt 0.562500 0.500000
vt 0.562500 0.437500
vt 0.562500 0.937500
vt 0.562500 0.875000
vt 0.562500 0.375000
vt 0.562500 0.812500
vt 0.562500 0.312500
vt 0.562500 0.750000
vt 0.562500 0.250000
vt 0.562500 0.687500
vt 0.562500 0.187500
vt 0.562500 0.625000
vt 0.562500 0.125000
vt 0.562500 0.562500
vt 0.562500 0.062500
vt 0.578125 1.000000
vt 0.578125 0.000000
vt 0.531250 0.250000
vt 0.531250 0.187500
vt 0.531250 0.687500
vt 0.531250 0.625000
vt 0.531250 0.125000
vt 0.531250 0.562500
vt 0.531250 0.062500
vt 0.531250 0.500000
vt 0.546875 1.000000
vt 0.531250 0.937500
vt 0.546875 0.000000
vt 0.531250 0.437500
vt 0.531250 0.875000
vt 0.531250 0.375000
vt 0.531250 0.812500
vt 0.531250 0.312500
vt 0.531250 0.750000
vt 0.500000 0.437500
vt 0.500000 0.375000
vt 0.500000 0.875000
vt 0.500000 0.812500
vt 0.500000 0.312500
vt 0.500000 0.750000
vt 0.500000 0.250000
vt 0.500000 0.687500
vt 0.500000 0.187500
vt 0.500000 0.625000
vt 0.500000 0.125000
vt 0.500000 0.562500
vt 0.500000 0.062500
vt 0.500000 0.500000
vt 0.515625 1.000000
vt 0.500000 0.937500
vt 0.515625 0.000000
vt 0.468750 0.187500
vt 0.468750 0.125000
vt 0.468750 0.625000
vt 0.468750 0.562500
vt 0.468750 0.062500
vt 0.468750 0.500000
vt 0.484375 1.000000
vt 0.468750 0.937500
vt 0.484375 0.000000
vt 0.468750 0.437500
vt 0.468750 0.875000
vt 0.468750 0.375000
vt 0.468750 0.812500
vt 0.468750 0.312500
vt 0.468750 0.750000
vt 0.468750 0.250000
vt 0.468750 0.687500
vt 0.437500 0.875000
vt 0.437500 0.812500
vt 0.437500 0.375000
vt 0.437500 0.312500
vt 0.437500 0.750000
vt 0.437500 0.250000
vt 0.437500 0.687500
vt 0.437500 0.187500
vt 0.437500 0.625000
vt 0.437500 0.125000
vt 0.437500 0.562500
vt 0.437500 0.062500
vt 0.437500 0.500000
vt 0.453125 1.000000
vt 0.437500 0.937500
vt 0.453125 0.000000
vt 0.437500 0.437500
vt 0.406250 0.625000
vt 0.406250 0.562500
vt 0.406250 0.125000
vt 0.406250 0.062500
vt 0.406250 0.500000
vt 0.421875 1.000000
vt 0.406250 0.937500
vt 0.421875 0.000000
vt 0.406250 0.437500
vt 0.406250 0.875000
vt 0.406250 0.375000
vt 0.406250 0.812500
vt 0.406250 0.312500
vt 0.406250 0.750000
vt 0.406250 0.250000
vt 0.406250 0.687500
vt 0.406250 0.187500
vt 0.375000 0.375000
vt 0.375000 0.312500
vt 0.375000 0.812500
vt 0.375000 0.750000
vt 0.375000 0.250000
vt 0.375000 0.687500
vt 0.375000 0.187500
vt 0.375000 0.625000
vt 0.375000 0.125000
vt 0.375000 0.562500
vt 0.375000 0.062500
vt 0.375000 0.500000
vt 0.390625 1.000000
vt 0.375000 0.937500
vt 0.390625 0.000000
vt 0.375000 0.437500
vt 0.375000 0.875000
vt 0.343750 0.125000
vt 0.343750 0.062500
vt 0.343750 0.562500
vt 0.343750 0.500000
vt 0.359375 1.000000
vt 0.343750 0.937500
vt 0.359375 0.000000
vt 0.343750 0.437500
vt 0.343750 0.875000
vt 0.343750 0.375000
vt 0.343750 0.812500
vt 0.343750 0.312500
vt 0.343750 0.750000
vt 0.343750 0.250000
vt 0.343750 0.687500
vt 0.343750 0.187500
vt 0.343750 0.625000
vt 0.312500 0.812500
vt 0.312500 0.750000
vt 0.312500 0.312500
vt 0.312500 0.250000
vt 0.312500 0.687500
vt 0.312500 0.187500
vt 0.312500 0.625000
vt 0.312500 0.125000
vt 0.312500 0.562500
vt 0.312500 0.062500
vt 0.312500 0.500000
vt 0.328125 1.000000
vt 0.312500 0.937500
vt 0.328125 0.000000
vt 0.312500 0.437500
vt 0.312500 0.875000
vt 0.312500 0.375000
vt 0.281250 0.562500
vt 0.281250 0.500000
vt 0.296875 1.000000
vt 0.281250 0.937500
vt 0.296875 0.000000
vt 0.281250 0.062500
vt 0.281250 0.437500
vt 0.281250 0.875000
vt 0.281250 0.375000
vt 0.281250 0.812500
vt 0.281250 0.312500
vt 0.281250 0.750000
vt 0.281250 0.250000
vt 0.281250 0.687500
vt 0.281250 0.187500
vt 0.281250 0.625000
vt 0.281250 0.125000
vt 0.250000 0.312500
vt 0.250000 0.250000
vt 0.250000 0.750000
vt 0.250000 0.687500
vt 0.250000 0.187500
vt 0.250000 0.625000
vt 0.250000 0.125000
vt 0.250000 0.562500
vt 0.250000 0.062500
vt 0.250000 0.500000
vt 0.265625 1.000000
vt 0.250000 0.937500
vt 0.265625 0.000000
vt 0.250000 0.437500
vt 0.250000 0.875000
vt 0.250000 0.375000
vt 0.250000 0.812500
vn -0.9904 0.0975 0.0975
vn -0.2902 -0.9565 0.0286
vn -0.9527 0.2890 0.0938
vn -0.4709 -0.8810 0.0464
vn -0.8786 0.4696 0.0865
vn -0.6331 -0.7715 0.0624
vn -0.7708 0.6325 0.0759
vn -0.7708 -0.6325 0.0759
vn -0.6331 0.7715 0.0624
vn -0.8786 -0.4696 0.0865
vn -0.4709 0.8810 0.0464
vn -0.9527 -0.2890 0.0938
vn -0.2902 0.9565 0.0286
vn -0.9904 -0.0975 0.0975
vn -0.0980 -0.9951 0.0096
vn -0.0980 0.9951 0.0097
vn -0.9524 -0.0975 0.2889
vn -0.0942 -0.9951 0.0286
vn -0.0942 0.9951 0.0286
vn -0.9524 0.0976 0.2889
vn -0.2790 -0.9565 0.0846
vn -0.9161 0.2890 0.2779
vn -0.4528 -0.8810 0.1373
vn -0.8449 0.4696 0.2563
vn -0.6088 -0.7715 0.1847
vn -0.7412 0.6326 0.2248
vn -0.7412 -0.6326 0.2248
vn -0.6088 0.7715 0.1847
vn -0.8449 -0.4696 0.2563
vn -0.4528 0.8810 0.1373
vn -0.9161 -0.2890 0.2779
vn -0.2790 0.9565 0.0846
vn -0.6831 0.6325 0.3651
vn -0.6831 -0.6325 0.3651
vn -0.5611 0.7715 0.2999
vn -0.7786 -0.4696 0.4162
vn -0.4173 0.8810 0.2230
vn -0.8443 -0.2890 0.4513
vn -0.2572 0.9565 0.1374
vn -0.8777 -0.0975 0.4691
vn -0.0869 -0.9951 0.0464
vn -0.0869 0.9951 0.0464
vn -0.8777 0.0975 0.4691
vn -0.2572 -0.9565 0.1374
vn -0.8443 0.2890 0.4513
vn -0.4173 -0.8810 0.2230
vn -0.7786 0.4696 0.4162
vn -0.5611 -0.7715 0.2999
vn -0.0761 -0.9951 0.0625
vn -0.0761 0.9951 0.0625
vn -0.7693 0.0975 0.6314
vn -0.2254 -0.9565 0.1850
vn -0.7400 0.2890 0.6073
vn -0.3658 -0.8810 0.3002
vn -0.6825 0.4696 0.5601
vn -0.4918 -0.7715 0.4036
vn -0.5987 0.6326 0.4914
vn -0.5987 -0.6326 0.4914
vn -0.4918 0.7715 0.4036
vn -0.6825 -0.4696 0.5601
vn -0.3658 0.8810 0.3002
vn -0.7400 -0.2890 0.6073
vn -0.2254 0.9565 0.1850
vn -0.7693 -0.0975 0.6314
vn -0.4914 -0.6326 0.5987
vn -0.4036 0.7715 0.4918
vn -0.5601 -0.4696 0.6825
vn -0.3002 0.8810 0.3658
vn -0.6073 -0.2890 0.7400
vn -0.1850 0.9565 0.2254
vn -0.6314 -0.0976 0.7693
vn -0.0625 -0.9951 0.0761
vn -0.0625 0.9951 0.0761
vn -0.6314 0.0976 0.7693
vn -0.1850 -0.9565 0.2254
vn -0.6073 0.2890 0.7400
vn -0.3002 -0.8810 0.3658
vn -0.5601 0.4696 0.6825
vn -0.4036 -0.7715 0.4918
vn -0.4914 0.6326 0.5987
vn -0.4692 0.0976 0.8777
vn -0.1375 -0.9566 0.2571
vn -0.4513 0.2890 0.8443
vn -0.2231 -0.8810 0.4173
vn -0.4162 0.4696 0.7786
vn -0.2999 -0.7715 0.5611
vn -0.3651 0.6326 0.6831
vn -0.3651 -0.6326 0.6831
vn -0.2999 0.7715 0.5611
vn -0.4162 -0.4696 0.7786
vn -0.2231 0.8810 0.4173
vn -0.4513 -0.2890 0.8443
vn -0.1374 0.9565 0.2571
vn -0.4692 -0.0976 0.8777
vn -0.0464 -0.9951 0.0869
vn -0.0464 0.9951 0.0869
vn -0.1847 0.7715 0.6088
vn -0.2563 -0.4696 0.8448
vn -0.1373 0.8810 0.4528
vn -0.2779 -0.2890 0.9161
vn -0.0846 0.9565 0.2790
vn -0.2889 -0.0976 0.9524
vn -0.0286 -0.9951 0.0942
vn -0.0286 0.9951 0.0942
vn -0.2889 0.0976 0.9524
vn -0.0846 -0.9565 0.2790
vn -0.2779 0.2890 0.9161
vn -0.1373 -0.8810 0.4528
vn -0.2563 0.4696 0.8448
vn -0.1847 -0.7715 0.6088
vn -0.2248 0.6325 0.7412
vn -0.2248 -0.6325 0.7412
vn -0.0938 0.2890 0.9527
vn -0.0464 -0.8810 0.4709
vn -0.0865 0.4696 0.8786
vn -0.0623 -0.7715 0.6331
vn -0.0759 0.6326 0.7708
vn -0.0759 -0.6325 0.7708
vn -0.0623 0.7715 0.6331
vn -0.0865 -0.4696 0.8786
vn -0.0464 0.8810 0.4709
vn -0.0938 -0.2890 0.9527
vn -0.0286 0.9565 0.2902
vn -0.0976 -0.0976 0.9904
vn -0.0097 -0.9951 0.0980
vn -0.0097 0.9951 0.0980
vn -0.0976 0.0976 0.9904
vn -0.0286 -0.9565 0.2902
vn 0.0464 0.8810 0.4709
vn 0.0938 -0.2890 0.9527
vn 0.0286 0.9565 0.2902
vn 0.0976 -0.0976 0.9904
vn 0.0097 -0.9951 0.0980
vn 0.0097 0.9951 0.0980
vn 0.0976 0.0976 0.9904
vn 0.0286 -0.9565 0.2902
vn 0.0938 0.2890 0.9527
vn 0.0464 -0.8810 0.4709
vn 0.0865 0.4696 0.8786
vn 0.0623 -0.7715 0.6331
vn 0.0759 0.6326 0.7708
vn 0.0759 -0.6325 0.7708
vn 0.0623 0.7715 0.6331
vn 0.0865 -0.4696 0.8786
vn 0.1373 -0.8810 0.4528
vn 0.2563 0.4696 0.8448
vn 0.1847 -0.7715 0.6088
vn 0.2248 0.6325 0.7412
vn 0.2248 -0.6325 0.7412
vn 0.1847 0.7715 0.6088
vn 0.2563 -0.4696 0.8448
vn 0.1373 0.8810 0.4528
vn 0.2779 -0.2890 0.9161
vn 0.0846 0.9565 0.2790
vn 0.2889 -0.0976 0.9524
vn 0.0286 -0.9951 0.0942
vn 0.0286 0.9951 0.0942
vn 0.2889 0.0976 0.9524
vn 0.0846 -0.9565 0.2790
vn 0.2779 0.2890 0.9161
vn 0.4513 -0.2890 0.8443
vn 0.1374 0.9565 0.2571
vn 0.4692 -0.0976 0.8777
vn 0.0464 -0.9951 0.0869
vn 0.0464 0.9951 0.0869
vn 0.4692 0.0976 0.8777
vn 0.1375 -0.9566 0.2571
vn 0.4513 0.2890 0.8443
vn 0.2231 -0.8810 0.4173
vn 0.4162 0.4696 0.7786
vn 0.2999 -0.7715 0.5611
vn 0.3651 0.6326 0.6831
vn 0.3651 -0.6326 0.6831
vn 0.2999 0.7715 0.5611
vn 0.4162 -0.4696 0.7786
vn 0.2231 0.8810 0.4173
vn 0.5601 0.4696 0.6825
vn 0.4036 -0.7715 0.4918
vn 0.4914 0.6326 0.5987
vn 0.4914 -0.6326 0.5987
vn 0.4036 0.7715 0.4918
vn 0.5601 -0.4696 0.6825
vn 0.3002 0.8810 0.3658
vn 0.6073 -0.2890 0.7400
vn 0.1850 0.9565 0.2254
vn 0.6314 -0.0976 0.7693
vn 0.0625 -0.9951 0.0761
vn 0.0625 0.9951 0.0761
vn 0.6314 0.0976 0.7693
vn 0.1850 -0.9565 0.2254
vn 0.6073 0.2890 0.7400
vn 0.3002 -0.8810 0.3658
vn 0.2254 0.9565 0.1850
vn 0.7693 -0.0975 0.6314
vn 0.0761 -0.9951 0.0625
vn 0.0761 0.9951 0.0625
vn 0.7693 0.0975 0.6314
vn 0.2254 -0.9565 0.1850
vn 0.7400 0.2890 0.6073
vn 0.3658 -0.8810 0.3002
vn 0.6825 0.4696 0.5601
vn 0.4918 -0.7715 0.4036
vn 0.5987 0.6326 0.4914
vn 0.5987 -0.6326 0.4914
vn 0.4918 0.7715 0.4036
vn 0.6825 -0.4696 0.5601
vn 0.3658 0.8810 0.3002
vn 0.7400 -0.2890 0.6073
vn 0.5611 -0.7715 0.2999
vn 0.6831 0.6325 0.3651
vn 0.6831 -0.6325 0.3651
vn 0.5611 0.7715 0.2999
vn 0.7786 -0.4696 0.4162
vn 0.4173 0.8810 0.2230
vn 0.8443 -0.2890 0.4513
vn 0.2572 0.9565 0.1374
vn 0.8777 -0.0975 0.4691
vn 0.0869 -0.9951 0.0464
vn 0.0869 0.9951 0.0464
vn 0.8777 0.0975 0.4691
vn 0.2572 -0.9565 0.1374
vn 0.8443 0.2890 0.4513
vn 0.4173 -0.8810 0.2230
vn 0.7786 0.4696 0.4162
vn 0.9524 -0.0975 0.2889
vn 0.0942 -0.9951 0.0286
vn 0.0942 0.9951 0.0286
vn 0.9524 0.0975 0.2889
vn 0.2790 -0.9565 0.0846
vn 0.9161 0.2890 0.2779
vn 0.4528 -0.8810 0.1373
vn 0.8449 0.4696 0.2563
vn 0.6088 -0.7715 0.1847
vn 0.7412 0.6325 0.2248
vn 0.7412 -0.6325 0.2248
vn 0.6088 0.7715 0.1847
vn 0.8449 -0.4696 0.2563
vn 0.4528 0.8810 0.1373
vn 0.9161 -0.2890 0.2779
vn 0.2790 0.9565 0.0846
vn 0.7708 0.6325 0.0759
vn 0.7708 -0.6325 0.0759
vn 0.6331 0.7715 0.0624
vn 0.8786 -0.4696 0.0865
vn 0.4709 0.8810 0.0464
vn 0.9527 -0.2890 0.0938
vn 0.2902 0.9565 0.0286
vn 0.9904 -0.0975 0.0975
vn 0.0980 -0.9951 0.0096
vn 0.0980 0.9951 0.0097
vn 0.9904 0.0975 0.0975
vn 0.2902 -0.9565 0.0286
vn 0.9527 0.2890 0.0938
vn 0.4709 -0.8810 0.0464
vn 0.8786 0.4696 0.0865
vn 0.6331 -0.7715 0.0624
usemtl Default_OBJ
s 1
f 1/1/1 2/2/1 3/3/1 4/4/1
f 5/5/2 6/6/2 7/7/2 8/8/2
f 9/9/3 1/1/3 4/4/3 10/10/3
f 11/11/4 5/5/4 8/8/4 12/12/4
f 13/13/5 9/9/5 10/10/5 14/14/5
f 15/15/6 11/11/6 12/12/6 16/16/6
f 17/17/7 13/13/7 14/14/7 18/18/7
f 19/19/8 15/15/8 16/16/8 20/20/8
f 21/21/9 17/17/9 18/18/9 22/22/9
f 23/23/10 19/19/10 20/20/10 24/24/10
f 25/25/11 21/21/11 22/22/11 26/26/11
f 27/27/12 23/23/12 24/24/12 28/28/12
f 29/29/13 25/25/13 26/26/13 30/30/13
f 2/2/14 27/27/14 28/28/14 3/3/14
f 6/6/15 31/31/15 7/7/15
f 32/32/16 29/29/16 30/30/16
f 3/3/17 28/28/17 33/33/17 34/34/17
f 7/7/18 31/35/18 35/36/18
f 32/37/19 30/30/19 36/38/19
f 4/4/20 3/3/20 34/34/20 37/39/20
f 8/8/21 7/7/21 35/36/21 38/40/21
f 10/10/22 4/4/22 37/39/22 39/41/22
f 12/12/23 8/8/23 38/40/23 40/42/23
f 14/14/24 10/10/24 39/41/24 41/43/24
f 16/16/25 12/12/25 40/42/25 42/44/25
f 18/18/26 14/14/26 41/43/26 43/45/26
f 20/20/27 16/16/27 42/44/27 44/46/27
f 22/22/28 18/18/28 43/45/28 45/47/28
f 24/24/29 20/20/29 44/46/29 46/48/29
f 26/26/30 22/22/30 45/47/30 47/49/30
f 28/28/31 24/24/31 46/48/31 33/33/31
f 30/30/32 26/26/32 47/49/32 36/38/32
f 43/45/33 41/43/33 48/50/33 49/51/33
f 44/46/34 42/44/34 50/52/34 51/53/34
f 45/47/35 43/45/35 49/51/35 52/54/35
f 46/48/36 44/46/36 51/53/36 53/55/36
f 47/49/37 45/47/37 52/54/37 54/56/37
f 33/33/38 46/48/38 53/55/38 55/57/38
f 36/38/39 47/49/39 54/56/39 56/58/39
f 34/34/40 33/33/40 55/57/40 57/59/40
f 35/36/41 31/60/41 58/61/41
f 32/62/42 36/38/42 56/58/42
f 37/39/43 34/34/43 57/59/43 59/63/43
f 38/40/44 35/36/44 58/61/44 60/64/44
f 39/41/45 37/39/45 59/63/45 61/65/45
f 40/42/46 38/40/46 60/64/46 62/66/46
f 41/43/47 39/41/47 61/65/47 48/50/47
f 42/44/48 40/42/48 62/66/48 50/52/48
f 58/61/49 31/67/49 63/68/49
f 32/69/50 56/58/50 64/70/50
f 59/63/51 57/59/51 65/71/51 66/72/51
f 60/64/52 58/61/52 63/68/52 67/73/52
f 61/65/53 59/63/53 66/72/53 68/74/53
f 62/66/54 60/64/54 67/73/54 69/75/54
f 48/50/55 61/65/55 68/74/55 70/76/55
f 50/52/56 62/66/56 69/75/56 71/77/56
f 49/51/57 48/50/57 70/76/57 72/78/57
f 51/53/58 50/52/58 71/77/58 73/79/58
f 52/54/59 49/51/59 72/78/59 74/80/59
f 53/55/60 51/53/60 73/79/60 75/81/60
f 54/56/61 52/54/61 74/80/61 76/82/61
f 55/57/62 53/55/62 75/81/62 77/83/62
f 56/58/63 54/56/63 76/82/63 64/70/63
f 57/59/64 55/57/64 77/83/64 65/71/64
f 73/79/65 71/77/65 78/84/65 79/85/65
f 74/80/66 72/78/66 80/86/66 81/87/66
f 75/81/67 73/79/67 79/85/67 82/88/67
f 76/82/68 74/80/68 81/87/68 83/89/68
f 77/83/69 75/81/69 82/88/69 84/90/69
f 64/70/70 76/82/70 83/89/70 85/91/70
f 65/71/71 77/83/71 84/90/71 86/92/71
f 63/68/72 31/93/72 87/94/72
f 32/95/73 64/70/73 85/91/73
f 66/72/74 65/71/74 86/92/74 88/96/74
f 67/73/75 63/68/75 87/94/75 89/97/75
f 68/74/76 66/72/76 88/96/76 90/98/76
f 69/75/77 67/73/77 89/97/77 91/99/77
f 70/76/78 68/74/78 90/98/78 92/100/78
f 71/77/79 69/75/79 91/99/79 78/84/79
f 72/78/80 70/76/80 92/100/80 80/86/80
f 88/96/81 86/92/81 93/101/81 94/102/81
f 89/97/82 87/94/82 95/103/82 96/104/82
f 90/98/83 88/96/83 94/102/83 97/105/83
f 91/99/84 89/97/84 96/104/84 98/106/84
f 92/100/85 90/98/85 97/105/85 99/107/85
f 78/84/86 91/99/86 98/106/86 100/108/86
f 80/86/87 92/100/87 99/107/87 101/109/87
f 79/85/88 78/84/88 100/108/88 102/110/88
f 81/87/89 80/86/89 101/109/89 103/111/89
f 82/88/90 79/85/90 102/110/90 104/112/90
f 83/89/91 81/87/91 103/111/91 105/113/91
f 84/90/92 82/88/92 104/112/92 106/114/92
f 85/91/93 83/89/93 105/113/93 107/115/93
f 86/92/94 84/90/94 106/114/94 93/101/94
f 87/94/95 31/116/95 95/103/95
f 32/117/96 85/91/96 107/115/96
f 103/111/97 101/109/97 108/118/97 109/119/97
f 104/112/98 102/110/98 110/120/98 111/121/98
f 105/113/99 103/111/99 109/119/99 112/122/99
f 106/114/100 104/112/100 111/121/100 113/123/100
f 107/115/101 105/113/101 112/122/101 114/124/101
f 93/101/102 106/114/102 113/123/102 115/125/102
f 95/103/103 31/126/103 116/127/103
f 32/128/104 107/115/104 114/124/104
f 94/102/105 93/101/105 115/125/105 117/129/105
f 96/104/106 95/103/106 116/127/106 118/130/106
f 97/105/107 94/102/107 117/129/107 119/131/107
f 98/106/108 96/104/108 118/130/108 120/132/108
f 99/107/109 97/105/109 119/131/109 121/133/109
f 100/108/110 98/106/110 120/132/110 122/134/110
f 101/109/111 99/107/111 121/133/111 108/118/111
f 102/110/112 100/108/112 122/134/112 110/120/112
f 119/131/113 117/129/113 123/135/113 124/136/113
f 120/132/114 118/130/114 125/137/114 126/138/114
f 121/133/115 119/131/115 124/136/115 127/139/115
f 122/134/116 120/132/116 126/138/116 128/140/116
f 108/118/117 121/133/117 127/139/117 129/141/117
f 110/120/118 122/134/118 128/140/118 130/142/118
f 109/119/119 108/118/119 129/141/119 131/143/119
f 111/121/120 110/120/120 130/142/120 132/144/120
f 112/122/121 109/119/121 131/143/121 133/145/121
f 113/123/122 111/121/122 132/144/122 134/146/122
f 114/124/123 112/122/123 133/145/123 135/147/123
f 115/125/124 113/123/124 134/146/124 136/148/124
f 116/127/125 31/149/125 137/150/125
f 32/151/126 114/124/126 135/147/126
f 117/129/127 115/125/127 136/148/127 123/135/127
f 118/130/128 116/127/128 137/150/128 125/137/128
f 133/145/129 131/143/129 138/152/129 139/153/129
f 134/146/130 132/144/130 140/154/130 141/155/130
f 135/147/131 133/145/131 139/153/131 142/156/131
f 136/148/132 134/146/132 141/155/132 143/157/132
f 137/150/133 31/158/133 144/159/133
f 32/160/134 135/147/134 142/156/134
f 123/135/135 136/148/135 143/157/135 145/161/135
f 125/137/136 137/150/136 144/159/136 146/162/136
f 124/136/137 123/135/137 145/161/137 147/163/137
f 126/138/138 125/137/138 146/162/138 148/164/138
f 127/139/139 124/136/139 147/163/139 149/165/139
f 128/140/140 126/138/140 148/164/140 150/166/140
f 129/141/141 127/139/141 149/165/141 151/167/141
f 130/142/142 128/140/142 150/166/142 152/168/142
f 131/143/143 129/141/143 151/167/143 138/152/143
f 132/144/144 130/142/144 152/168/144 140/154/144
f 148/164/145 146/162/145 153/169/145 154/170/145
f 149/165/146 147/163/146 155/171/146 156/172/146
f 150/166/147 148/164/147 154/170/147 157/173/147
f 151/167/148 149/165/148 156/172/148 158/174/148
f 152/168/149 150/166/149 157/173/149 159/175/149
f 138/152/150 151/167/150 158/174/150 160/176/150
f 140/154/151 152/168/151 159/175/151 161/177/151
f 139/153/152 138/152/152 160/176/152 162/178/152
f 141/155/153 140/154/153 161/177/153 163/179/153
f 142/156/154 139/153/154 162/178/154 164/180/154
f 143/157/155 141/155/155 163/179/155 165/181/155
f 144/159/156 31/182/156 166/183/156
f 32/184/157 142/156/157 164/180/157
f 145/161/158 143/157/158 165/181/158 167/185/158
f 146/162/159 144/159/159 166/183/159 153/169/159
f 147/163/160 145/161/160 167/185/160 155/171/160
f 163/179/161 161/177/161 168/186/161 169/187/161
f 164/180/162 162/178/162 170/188/162 171/189/162
f 165/181/163 163/179/163 169/187/163 172/190/163
f 166/183/164 31/191/164 173/192/164
f 32/193/165 164/180/165 171/189/165
f 167/185/166 165/181/166 172/190/166 174/194/166
f 153/169/167 166/183/167 173/192/167 175/195/167
f 155/171/168 167/185/168 174/194/168 176/196/168
f 154/170/169 153/169/169 175/195/169 177/197/169
f 156/172/170 155/171/170 176/196/170 178/198/170
f 157/173/171 154/170/171 177/197/171 179/199/171
f 158/174/172 156/172/172 178/198/172 180/200/172
f 159/175/173 157/173/173 179/199/173 181/201/173
f 160/176/174 158/174/174 180/200/174 182/202/174
f 161/177/175 159/175/175 181/201/175 168/186/175
f 162/178/176 160/176/176 182/202/176 170/188/176
f 178/198/177 176/196/177 183/203/177 184/204/177
f 179/199/178 177/197/178 185/205/178 186/206/178
f 180/200/179 178/198/179 184/204/179 187/207/179
f 181/201/180 179/199/180 186/206/180 188/208/180
f 182/202/181 180/200/181 187/207/181 189/209/181
f 168/186/182 181/201/182 188/208/182 190/210/182
f 170/188/183 182/202/183 189/209/183 191/211/183
f 169/187/184 168/186/184 190/210/184 192/212/184
f 171/189/185 170/188/185 191/211/185 193/213/185
f 172/190/186 169/187/186 192/212/186 194/214/186
f 173/192/187 31/215/187 195/216/187
f 32/217/188 171/189/188 193/213/188
f 174/194/189 172/190/189 194/214/189 196/218/189
f 175/195/190 173/192/190 195/216/190 197/219/190
f 176/196/191 174/194/191 196/218/191 183/203/191
f 177/197/192 175/195/192 197/219/192 185/205/192
f 193/213/193 191/211/193 198/220/193 199/221/193
f 194/214/194 192/212/194 200/222/194 201/223/194
f 195/216/195 31/224/195 202/225/195
f 32/226/196 193/213/196 199/221/196
f 196/218/197 194/214/197 201/223/197 203/227/197
f 197/219/198 195/216/198 202/225/198 204/228/198
f 183/203/199 196/218/199 203/227/199 205/229/199
f 185/205/200 197/219/200 204/228/200 206/230/200
f 184/204/201 183/203/201 205/229/201 207/231/201
f 186/206/202 185/205/202 206/230/202 208/232/202
f 187/207/203 184/204/203 207/231/203 209/233/203
f 188/208/204 186/206/204 208/232/204 210/234/204
f 189/209/205 187/207/205 209/233/205 211/235/205
f 190/210/206 188/208/206 210/234/206 212/236/206
f 191/211/207 189/209/207 211/235/207 198/220/207
f 192/212/208 190/210/208 212/236/208 200/222/208
f 208/232/209 206/230/209 213/237/209 214/238/209
f 209/233/210 207/231/210 215/239/210 216/240/210
f 210/234/211 208/232/211 214/238/211 217/241/211
f 211/235/212 209/233/212 216/240/212 218/242/212
f 212/236/213 210/234/213 217/241/213 219/243/213
f 198/220/214 211/235/214 218/242/214 220/244/214
f 200/222/215 212/236/215 219/243/215 221/245/215
f 199/221/216 198/220/216 220/244/216 222/246/216
f 201/223/217 200/222/217 221/245/217 223/247/217
f 202/225/218 31/248/218 224/249/218
f 32/250/219 199/221/219 222/246/219
f 203/227/220 201/223/220 223/247/220 225/251/220
f 204/228/221 202/225/221 224/249/221 226/252/221
f 205/229/222 203/227/222 225/251/222 227/253/222
f 206/230/223 204/228/223 226/252/223 213/237/223
f 207/231/224 205/229/224 227/253/224 215/239/224
f 223/247/225 221/245/225 228/254/225 229/255/225
f 224/249/226 31/256/226 230/257/226
f 32/258/227 222/246/227 231/259/227
f 225/251/228 223/247/228 229/255/228 232/260/228
f 226/252/229 224/249/229 230/257/229 233/261/229
f 227/253/230 225/251/230 232/260/230 234/262/230
f 213/237/231 226/252/231 233/261/231 235/263/231
f 215/239/232 227/253/232 234/262/232 236/264/232
f 214/238/233 213/237/233 235/263/233 237/265/233
f 216/240/234 215/239/234 236/264/234 238/266/234
f 217/241/235 214/238/235 237/265/235 239/267/235
f 218/242/236 216/240/236 238/266/236 240/268/236
f 219/243/237 217/241/237 239/267/237 241/269/237
f 220/244/238 218/242/238 240/268/238 242/270/238
f 221/245/239 219/243/239 241/269/239 228/254/239
f 222/246/240 220/244/240 242/270/240 231/259/240
f 238/266/241 236/264/241 243/271/241 244/272/241
f 239/267/242 237/265/242 245/273/242 246/274/242
f 240/268/243 238/266/243 244/272/243 247/275/243
f 241/269/244 239/267/244 246/274/244 248/276/244
f 242/270/245 240/268/245 247/275/245 249/277/245
f 228/254/246 241/269/246 248/276/246 250/278/246
f 231/259/247 242/270/247 249/277/247 251/279/247
f 229/255/248 228/254/248 250/278/248 252/280/248
f 230/257/249 31/281/249 253/282/249
f 32/283/250 231/259/250 251/279/250
f 232/260/251 229/255/251 252/280/251 254/284/251
f 233/261/252 230/257/252 253/282/252 255/285/252
f 234/262/253 232/260/253 254/284/253 256/286/253
f 235/263/254 233/261/254 255/285/254 257/287/254
f 236/264/255 234/262/255 256/286/255 243/271/255
f 237/265/256 235/263/256 257/287/256 245/273/256
