####
#
# OBJ File Generated by Meshlab
#
####
# Object halfsphere_inverse.obj
#
# Vertices: 257
# Faces: 480
#
####
vn -0.558908 0.827400 0.055056
v 0.065664 -0.098273 0.044405
vn -0.830558 0.550894 0.081790
v 0.098273 -0.065664 0.044405
vn -0.976468 0.193037 0.096159
v 0.115921 -0.023058 0.044405
vn -0.995185 -0.000003 0.098010
v 0.118192 -0.000000 0.044405
vn -0.976469 -0.193032 0.096160
v 0.115921 0.023058 0.044405
vn -0.830561 -0.550889 0.081789
v 0.098273 0.065664 0.044405
vn -0.197112 0.979597 0.039207
v 0.022615 -0.115921 0.039906
vn -0.380436 0.921706 0.075674
v 0.044361 -0.109195 0.035581
vn -0.548999 0.828659 0.109196
v 0.064402 -0.098273 0.031594
vn -0.696494 0.704061 0.138541
v 0.081969 -0.083575 0.028100
vn -0.817338 0.552747 0.162570
v 0.096385 -0.065664 0.025232
vn -0.906999 0.380535 0.180406
v 0.107097 -0.045230 0.023102
vn -0.962165 0.193933 0.191385
v 0.113694 -0.023058 0.021790
vn -0.980784 -0.000000 0.195094
v 0.115921 -0.000000 0.021346
vn -0.962165 -0.193934 0.191385
v 0.113694 0.023058 0.021790
vn -0.906998 -0.380535 0.180409
v 0.107097 0.045230 0.023102
vn -0.817341 -0.552742 0.162571
v 0.096385 0.065664 0.025232
vn -0.696489 -0.704066 0.138543
v 0.081969 0.083575 0.028100
vn -0.549002 -0.828657 0.109199
v 0.064402 0.098273 0.031594
vn -0.380435 -0.921707 0.075670
v 0.044361 0.109195 0.035581
vn -0.197113 -0.979597 0.039207
v 0.022615 0.115921 0.039906
vn -0.185675 0.979597 0.076908
v 0.021303 -0.115921 0.035581
vn -0.358363 0.921709 0.148420
v 0.041787 -0.109195 0.027096
vn -0.517153 0.828655 0.214204
v 0.060666 -0.098273 0.019276
vn -0.656082 0.704063 0.271757
v 0.077213 -0.083575 0.012422
vn -0.769913 0.552745 0.318915
v 0.090793 -0.065664 0.006797
vn -0.854375 0.380530 0.353892
v 0.100883 -0.045230 0.002617
vn -0.906343 0.193931 0.375412
v 0.107097 -0.023058 0.000044
vn -0.923876 -0.000004 0.382692
v 0.109195 0.000000 -0.000826
vn -0.906342 -0.193929 0.375415
v 0.107097 0.023058 0.000044
vn -0.854381 -0.380525 0.353885
v 0.100883 0.045230 0.002617
vn -0.769911 -0.552750 0.318911
v 0.090793 0.065664 0.006797
vn -0.656082 -0.704063 0.271759
v 0.077213 0.083575 0.012422
vn -0.517154 -0.828655 0.214203
v 0.060666 0.098273 0.019276
vn -0.358363 -0.921708 0.148427
v 0.041787 0.109195 0.027096
vn -0.185674 -0.979597 0.076906
v 0.021303 0.115921 0.035581
vn -0.167106 0.979598 0.111643
v 0.019172 -0.115921 0.031594
vn -0.322524 0.921707 0.215489
v 0.037608 -0.109195 0.019276
vn -0.465428 0.828654 0.310981
v 0.054598 -0.098273 0.007924
vn -0.590456 0.704056 0.394546
v 0.069490 -0.083575 -0.002027
vn -0.692899 0.552755 0.462983
v 0.081711 -0.065664 -0.010193
vn -0.768919 0.380539 0.513763
v 0.090793 -0.045230 -0.016261
vn -0.815689 0.193921 0.545019
v 0.096385 -0.023058 -0.019998
vn -0.831478 -0.000000 0.555558
v 0.098273 0.000000 -0.021259
vn -0.815695 -0.193920 0.545010
v 0.096385 0.023058 -0.019998
vn -0.768916 -0.380539 0.513769
v 0.090793 0.045230 -0.016261
vn -0.692897 -0.552755 0.462985
v 0.081711 0.065664 -0.010193
vn -0.590456 -0.704060 0.394539
v 0.069490 0.083575 -0.002027
vn -0.465428 -0.828653 0.310985
v 0.054598 0.098273 0.007924
vn -0.322529 -0.921706 0.215486
v 0.037608 0.109195 0.019276
vn -0.167104 -0.979598 0.111646
v 0.019172 0.115921 0.031594
vn -0.142101 0.979596 0.142124
v 0.016305 -0.115921 0.028100
vn -0.274277 0.921707 0.274277
v 0.031983 -0.109195 0.012422
vn -0.395814 0.828648 0.395820
v 0.046432 -0.098273 -0.002027
vn -0.502146 0.704062 0.502142
v 0.059096 -0.083575 -0.014691
vn -0.589271 0.552761 0.589250
v 0.069490 -0.065664 -0.025085
vn -0.653910 0.380535 0.653907
v 0.077213 -0.045230 -0.032808
vn -0.693679 0.193930 0.693686
v 0.081969 -0.023058 -0.037564
vn -0.707113 0.000008 0.707100
v 0.083575 0.000000 -0.039170
vn -0.693673 -0.193940 0.693689
v 0.081969 0.023058 -0.037564
vn -0.653907 -0.380536 0.653910
v 0.077213 0.045230 -0.032808
vn -0.589271 -0.552754 0.589256
v 0.069490 0.065664 -0.025085
vn -0.502143 -0.704064 0.502142
v 0.059096 0.083575 -0.014691
vn -0.395820 -0.828648 0.395814
v 0.046432 0.098273 -0.002027
vn -0.274277 -0.921707 0.274279
v 0.031983 0.109195 0.012422
vn -0.142113 -0.979597 0.142107
v 0.016305 0.115921 0.028100
vn -0.111641 0.979599 0.167099
v 0.012810 -0.115921 0.025233
vn -0.215500 0.921708 0.322513
v 0.025129 -0.109195 0.006797
vn -0.310989 0.828651 0.465428
v 0.036481 -0.098273 -0.010193
vn -0.394539 0.704068 0.590447
v 0.046432 -0.083575 -0.025085
vn -0.462982 0.552752 0.692902
v 0.054598 -0.065664 -0.037307
vn -0.513774 0.380523 0.768920
v 0.060666 -0.045230 -0.046388
vn -0.545023 0.193935 0.815683
v 0.064402 -0.023058 -0.051980
vn -0.555566 -0.000002 0.831472
v 0.065664 0.000000 -0.053869
vn -0.545023 -0.193934 0.815684
v 0.064402 0.023058 -0.051980
vn -0.513783 -0.380523 0.768914
v 0.060666 0.045230 -0.046388
vn -0.462984 -0.552755 0.692898
v 0.054598 0.065664 -0.037307
vn -0.394539 -0.704063 0.590453
v 0.046432 0.083575 -0.025085
vn -0.310981 -0.828654 0.465428
v 0.036481 0.098273 -0.010193
vn -0.215504 -0.921705 0.322517
v 0.025129 0.109195 0.006797
vn -0.111641 -0.979598 0.167108
v 0.012810 0.115921 0.025232
vn 0.000000 0.998015 0.062980
v -0.000000 -0.118192 0.044405
vn -0.076909 0.979597 0.185672
v 0.008824 -0.115921 0.023102
vn -0.148424 0.921706 0.358370
v 0.017309 -0.109195 0.002617
vn -0.214214 0.828653 0.517152
v 0.025129 -0.098273 -0.016261
vn -0.271757 0.704063 0.656082
v 0.031983 -0.083575 -0.032808
vn -0.318896 0.552752 0.769916
v 0.037608 -0.065664 -0.046388
vn -0.353896 0.380539 0.854370
v 0.041787 -0.045230 -0.056479
vn -0.375421 0.193932 0.906339
v 0.044361 -0.023058 -0.062693
vn -0.382685 -0.000001 0.923879
v 0.045230 0.000000 -0.064791
vn -0.375423 -0.193931 0.906338
v 0.044361 0.023058 -0.062693
vn -0.353891 -0.380535 0.854374
v 0.041787 0.045230 -0.056479
vn -0.318895 -0.552759 0.769911
v 0.037608 0.065664 -0.046388
vn -0.271756 -0.704062 0.656084
v 0.031983 0.083575 -0.032808
vn -0.214219 -0.828651 0.517154
v 0.025129 0.098273 -0.016261
vn -0.148425 -0.921707 0.358366
v 0.017309 0.109195 0.002617
vn -0.076890 -0.979598 0.185676
v 0.008824 0.115921 0.023102
vn -0.039200 0.979598 0.197109
v 0.004498 -0.115921 0.021790
vn -0.075677 0.921710 0.380425
v 0.008824 -0.109195 0.000044
vn -0.109194 0.828652 0.549011
v 0.012810 -0.098273 -0.019998
vn -0.138542 0.704060 0.696495
v 0.016305 -0.083575 -0.037564
vn -0.162583 0.552761 0.817326
v 0.019172 -0.065664 -0.051980
vn -0.180414 0.380537 0.906996
v 0.021303 -0.045230 -0.062693
vn -0.191388 0.193931 0.962165
v 0.022615 -0.023058 -0.069289
vn -0.195093 0.000001 0.980785
v 0.023058 0.000000 -0.071517
vn -0.191388 -0.193932 0.962165
v 0.022615 0.023058 -0.069289
vn -0.180415 -0.380538 0.906996
v 0.021303 0.045230 -0.062693
vn -0.162578 -0.552760 0.817328
v 0.019172 0.065664 -0.051980
vn -0.138551 -0.704058 0.696496
v 0.016305 0.083575 -0.037564
vn -0.109191 -0.828655 0.549006
v 0.012810 0.098273 -0.019998
vn -0.075667 -0.921709 0.380430
v 0.008824 0.109195 0.000044
vn -0.039220 -0.979598 0.197102
v 0.004498 0.115921 0.021790
vn -0.000002 0.979598 0.200968
v -0.000000 -0.115921 0.021347
vn 0.000006 0.921705 0.387891
v 0.000000 -0.109195 -0.000826
vn -0.000000 0.828655 0.559760
v 0.000000 -0.098273 -0.021259
vn -0.000006 0.704066 0.710135
v 0.000000 -0.083575 -0.039170
vn 0.000003 0.552757 0.833343
v 0.000000 -0.065664 -0.053869
vn -0.000000 0.380538 0.924765
v 0.000000 -0.045230 -0.064791
vn -0.000000 0.193933 0.981015
v 0.000000 -0.023058 -0.071517
vn -0.000000 0.000000 1.000000
v 0.000000 0.000000 -0.073788
vn 0.000000 -0.193933 0.981015
v 0.000000 0.023058 -0.071517
vn 0.000000 -0.380538 0.924765
v 0.000000 0.045230 -0.064791
vn -0.000003 -0.552757 0.833343
v 0.000000 0.065664 -0.053869
vn 0.000006 -0.704066 0.710135
v 0.000000 0.083575 -0.039170
vn 0.000000 -0.828655 0.559760
v 0.000000 0.098273 -0.021259
vn -0.000008 -0.921704 0.387894
v 0.000000 0.109195 -0.000826
vn -0.000002 -0.979595 0.200981
v -0.000000 0.115921 0.021346
vn 0.039202 0.979598 0.197107
v -0.004498 -0.115921 0.021790
vn 0.075667 0.921709 0.380430
v -0.008824 -0.109195 0.000044
vn 0.109191 0.828655 0.549006
v -0.012810 -0.098273 -0.019998
vn 0.138551 0.704058 0.696496
v -0.016305 -0.083575 -0.037564
vn 0.162578 0.552760 0.817328
v -0.019172 -0.065664 -0.051980
vn 0.180415 0.380538 0.906996
v -0.021303 -0.045230 -0.062693
vn 0.191388 0.193932 0.962165
v -0.022615 -0.023058 -0.069289
vn 0.195093 -0.000001 0.980785
v -0.023058 0.000000 -0.071517
vn 0.191388 -0.193931 0.962165
v -0.022615 0.023058 -0.069289
vn 0.180414 -0.380537 0.906996
v -0.021303 0.045230 -0.062693
vn 0.162583 -0.552761 0.817326
v -0.019172 0.065664 -0.051980
vn 0.138542 -0.704060 0.696495
v -0.016305 0.083575 -0.037564
vn 0.109194 -0.828652 0.549011
v -0.012810 0.098273 -0.019998
vn 0.075679 -0.921709 0.380427
v -0.008824 0.109195 0.000044
vn 0.039221 -0.979599 0.197099
v -0.004498 0.115921 0.021790
vn 0.076911 0.979597 0.185674
v -0.008824 -0.115921 0.023102
vn 0.148426 0.921708 0.358363
v -0.017309 -0.109195 0.002617
vn 0.214219 0.828651 0.517154
v -0.025129 -0.098273 -0.016261
vn 0.271756 0.704062 0.656084
v -0.031983 -0.083575 -0.032808
vn 0.318895 0.552759 0.769911
v -0.037608 -0.065664 -0.046388
vn 0.353891 0.380535 0.854374
v -0.041787 -0.045230 -0.056479
vn 0.375423 0.193931 0.906338
v -0.044361 -0.023058 -0.062693
vn 0.382685 0.000001 0.923879
v -0.045230 0.000000 -0.064791
vn 0.375421 -0.193932 0.906339
v -0.044361 0.023058 -0.062693
vn 0.353896 -0.380539 0.854370
v -0.041787 0.045230 -0.056479
vn 0.318897 -0.552752 0.769916
v -0.037608 0.065664 -0.046388
vn 0.271757 -0.704063 0.656081
v -0.031983 0.083575 -0.032808
vn 0.214214 -0.828653 0.517152
v -0.025129 0.098273 -0.016261
vn 0.148424 -0.921706 0.358370
v -0.017309 0.109195 0.002617
vn 0.076894 -0.979598 0.185677
v -0.008824 0.115921 0.023102
vn 0.111634 0.979600 0.167100
v -0.012810 -0.115921 0.025233
vn 0.215501 0.921706 0.322516
v -0.025129 -0.109195 0.006797
vn 0.310981 0.828654 0.465428
v -0.036481 -0.098273 -0.010193
vn 0.394539 0.704063 0.590452
v -0.046432 -0.083575 -0.025085
vn 0.462984 0.552755 0.692898
v -0.054598 -0.065664 -0.037307
vn 0.513783 0.380523 0.768914
v -0.060666 -0.045230 -0.046388
vn 0.545023 0.193934 0.815684
v -0.064402 -0.023058 -0.051980
vn 0.555566 0.000002 0.831472
v -0.065664 0.000000 -0.053869
vn 0.545023 -0.193935 0.815683
v -0.064402 0.023058 -0.051980
vn 0.513774 -0.380524 0.768920
v -0.060666 0.045230 -0.046388
vn 0.462982 -0.552752 0.692902
v -0.054598 0.065664 -0.037307
vn 0.394539 -0.704068 0.590447
v -0.046432 0.083575 -0.025085
vn 0.310989 -0.828651 0.465428
v -0.036481 0.098273 -0.010193
vn 0.215500 -0.921707 0.322516
v -0.025129 0.109195 0.006797
vn 0.111642 -0.979597 0.167112
v -0.012810 0.115921 0.025232
vn 0.142103 0.979596 0.142118
v -0.016305 -0.115921 0.028100
vn 0.274277 0.921707 0.274279
v -0.031983 -0.109195 0.012422
vn 0.395820 0.828648 0.395814
v -0.046432 -0.098273 -0.002027
vn 0.502143 0.704064 0.502141
v -0.059096 -0.083575 -0.014691
vn 0.589271 0.552754 0.589256
v -0.069490 -0.065664 -0.025085
vn 0.653907 0.380536 0.653910
v -0.077213 -0.045230 -0.032808
vn 0.693673 0.193940 0.693690
v -0.081969 -0.023058 -0.037564
vn 0.707113 -0.000008 0.707100
v -0.083575 0.000000 -0.039170
vn 0.693679 -0.193929 0.693686
v -0.081969 0.023058 -0.037564
vn 0.653910 -0.380535 0.653907
v -0.077213 0.045230 -0.032808
vn 0.589271 -0.552761 0.589250
v -0.069490 0.065664 -0.025085
vn 0.502146 -0.704061 0.502142
v -0.059096 0.083575 -0.014691
vn 0.395814 -0.828648 0.395820
v -0.046432 0.098273 -0.002027
vn 0.274279 -0.921707 0.274277
v -0.031983 0.109195 0.012422
vn 0.142110 -0.979597 0.142108
v -0.016305 0.115921 0.028100
vn 0.167104 0.979598 0.111646
v -0.019172 -0.115921 0.031594
vn 0.322529 0.921705 0.215486
v -0.037608 -0.109195 0.019276
vn 0.465427 0.828653 0.310985
v -0.054598 -0.098273 0.007924
vn 0.590456 0.704060 0.394539
v -0.069490 -0.083575 -0.002027
vn 0.692897 0.552755 0.462985
v -0.081711 -0.065664 -0.010193
vn 0.768916 0.380539 0.513769
v -0.090793 -0.045230 -0.016261
vn 0.815695 0.193920 0.545010
v -0.096385 -0.023058 -0.019998
vn 0.831478 0.000000 0.555558
v -0.098273 0.000000 -0.021259
vn 0.815689 -0.193921 0.545019
v -0.096385 0.023058 -0.019998
vn 0.768919 -0.380539 0.513763
v -0.090793 0.045230 -0.016261
vn 0.692899 -0.552755 0.462983
v -0.081711 0.065664 -0.010193
vn 0.590456 -0.704056 0.394546
v -0.069490 0.083575 -0.002027
vn 0.465428 -0.828654 0.310981
v -0.054598 0.098273 0.007924
vn 0.322524 -0.921707 0.215489
v -0.037608 0.109195 0.019276
vn 0.167106 -0.979598 0.111643
v -0.019172 0.115921 0.031594
vn 0.185674 0.979597 0.076906
v -0.021303 -0.115921 0.035581
vn 0.358363 0.921708 0.148427
v -0.041787 -0.109195 0.027096
vn 0.517154 0.828655 0.214203
v -0.060666 -0.098273 0.019276
vn 0.656082 0.704063 0.271759
v -0.077213 -0.083575 0.012422
vn 0.769914 0.552749 0.318907
v -0.090793 -0.065664 0.006797
vn 0.854381 0.380526 0.353884
v -0.100883 -0.045230 0.002617
vn 0.906342 0.193929 0.375415
v -0.107097 -0.023058 0.000044
vn 0.923878 0.000002 0.382688
v -0.109195 0.000000 -0.000826
vn 0.906343 -0.193929 0.375410
v -0.107097 0.023058 0.000044
vn 0.854375 -0.380530 0.353892
v -0.100883 0.045230 0.002617
vn 0.769915 -0.552746 0.318911
v -0.090793 0.065664 0.006797
vn 0.656084 -0.704062 0.271756
v -0.077213 0.083575 0.012422
vn 0.517153 -0.828655 0.214204
v -0.060666 0.098273 0.019276
vn 0.358363 -0.921709 0.148420
v -0.041787 0.109195 0.027096
vn 0.185675 -0.979597 0.076908
v -0.021303 0.115921 0.035581
vn 0.197113 0.979597 0.039207
v -0.022615 -0.115921 0.039906
vn 0.380435 0.921707 0.075670
v -0.044361 -0.109195 0.035581
vn 0.549002 0.828657 0.109199
v -0.064402 -0.098273 0.031594
vn 0.696491 0.704064 0.138543
v -0.081969 -0.083575 0.028100
vn 0.817342 0.552742 0.162566
v -0.096385 -0.065664 0.025233
vn 0.906997 0.380538 0.180411
v -0.107097 -0.045230 0.023102
vn 0.962166 0.193931 0.191385
v -0.113694 -0.023058 0.021790
vn 0.980786 -0.000001 0.195089
v -0.115921 -0.000000 0.021347
vn 0.962166 -0.193929 0.191387
v -0.113694 0.023058 0.021790
vn 0.906998 -0.380537 0.180406
v -0.107097 0.045230 0.023102
vn 0.817339 -0.552748 0.162564
v -0.096385 0.065664 0.025233
vn 0.696496 -0.704059 0.138543
v -0.081969 0.083575 0.028100
vn 0.548999 -0.828659 0.109196
v -0.064402 0.098273 0.031594
vn 0.380436 -0.921706 0.075674
v -0.044361 0.109195 0.035581
vn 0.197112 -0.979597 0.039207
v -0.022615 0.115921 0.039906
vn 0.200933 0.979405 0.019786
v -0.023058 -0.115921 0.044405
vn 0.387606 0.921035 0.038174
v -0.045230 -0.109195 0.044405
vn 0.558905 0.827402 0.055056
v -0.065664 -0.098273 0.044405
vn 0.708409 0.702344 0.069773
v -0.083575 -0.083575 0.044405
vn 0.830561 0.550889 0.081793
v -0.098273 -0.065664 0.044405
vn 0.920953 0.378972 0.090697
v -0.109195 -0.045230 0.044405
vn 0.976469 0.193031 0.096161
v -0.115921 -0.023058 0.044405
vn 0.995185 0.000004 0.098013
v -0.118192 -0.000000 0.044405
vn 0.976468 -0.193037 0.096159
v -0.115921 0.023058 0.044405
vn 0.920954 -0.378968 0.090698
v -0.109195 0.045230 0.044405
vn 0.830558 -0.550893 0.081794
v -0.098273 0.065664 0.044405
vn 0.708411 -0.702343 0.069778
v -0.083575 0.083575 0.044405
vn 0.558908 -0.827400 0.055056
v -0.065664 0.098273 0.044405
vn 0.387604 -0.921035 0.038172
v -0.045230 0.109195 0.044405
vn 0.200932 -0.979405 0.019785
v -0.023058 0.115921 0.044405
vn 0.000000 -0.998015 0.062979
v -0.000000 0.118192 0.044405
vn -0.200932 0.979405 0.019785
v 0.023058 -0.115921 0.044405
vn -0.387604 0.921035 0.038172
v 0.045230 -0.109195 0.044405
vn -0.708411 0.702343 0.069778
v 0.083575 -0.083575 0.044405
vn -0.920955 0.378967 0.090697
v 0.109195 -0.045230 0.044405
vn -0.920953 -0.378972 0.090697
v 0.109195 0.045230 0.044405
vn -0.708409 -0.702345 0.069772
v 0.083575 0.083575 0.044405
vn -0.558905 -0.827402 0.055056
v 0.065664 0.098273 0.044405
vn -0.387606 -0.921034 0.038174
v 0.045230 0.109195 0.044405
vn -0.200933 -0.979405 0.019786
v 0.023058 0.115921 0.044405
# 257 vertices, 0 vertices normals

f 4//4 5//5 14//14
f 14//14 5//5 15//15
f 249//249 250//250 7//7
f 7//7 250//250 8//8
f 5//5 253//253 15//15
f 15//15 253//253 16//16
f 250//250 1//1 8//8
f 8//8 1//1 9//9
f 253//253 6//6 16//16
f 16//16 6//6 17//17
f 1//1 251//251 9//9
f 9//9 251//251 10//10
f 6//6 254//254 17//17
f 17//17 254//254 18//18
f 251//251 2//2 10//10
f 10//10 2//2 11//11
f 254//254 255//255 18//18
f 18//18 255//255 19//19
f 2//2 252//252 11//11
f 11//11 252//252 12//12
f 255//255 256//256 19//19
f 19//19 256//256 20//20
f 252//252 3//3 12//12
f 12//12 3//3 13//13
f 256//256 257//257 20//20
f 20//20 257//257 21//21
f 3//3 4//4 13//13
f 13//13 4//4 14//14
f 82//82 249//249 7//7
f 257//257 248//248 21//21
f 13//13 14//14 28//28
f 28//28 14//14 29//29
f 82//82 7//7 22//22
f 21//21 248//248 36//36
f 14//14 15//15 29//29
f 29//29 15//15 30//30
f 7//7 8//8 22//22
f 22//22 8//8 23//23
f 15//15 16//16 30//30
f 30//30 16//16 31//31
f 8//8 9//9 23//23
f 23//23 9//9 24//24
f 16//16 17//17 31//31
f 31//31 17//17 32//32
f 9//9 10//10 24//24
f 24//24 10//10 25//25
f 17//17 18//18 32//32
f 32//32 18//18 33//33
f 10//10 11//11 25//25
f 25//25 11//11 26//26
f 18//18 19//19 33//33
f 33//33 19//19 34//34
f 11//11 12//12 26//26
f 26//26 12//12 27//27
f 19//19 20//20 34//34
f 34//34 20//20 35//35
f 12//12 13//13 27//27
f 27//27 13//13 28//28
f 20//20 21//21 35//35
f 35//35 21//21 36//36
f 32//32 33//33 47//47
f 47//47 33//33 48//48
f 25//25 26//26 40//40
f 40//40 26//26 41//41
f 33//33 34//34 48//48
f 48//48 34//34 49//49
f 26//26 27//27 41//41
f 41//41 27//27 42//42
f 34//34 35//35 49//49
f 49//49 35//35 50//50
f 27//27 28//28 42//42
f 42//42 28//28 43//43
f 35//35 36//36 50//50
f 50//50 36//36 51//51
f 28//28 29//29 43//43
f 43//43 29//29 44//44
f 82//82 22//22 37//37
f 36//36 248//248 51//51
f 29//29 30//30 44//44
f 44//44 30//30 45//45
f 22//22 23//23 37//37
f 37//37 23//23 38//38
f 30//30 31//31 45//45
f 45//45 31//31 46//46
f 23//23 24//24 38//38
f 38//38 24//24 39//39
f 31//31 32//32 46//46
f 46//46 32//32 47//47
f 24//24 25//25 39//39
f 39//39 25//25 40//40
f 82//82 37//37 52//52
f 51//51 248//248 66//66
f 44//44 45//45 59//59
f 59//59 45//45 60//60
f 37//37 38//38 52//52
f 52//52 38//38 53//53
f 45//45 46//46 60//60
f 60//60 46//46 61//61
f 38//38 39//39 53//53
f 53//53 39//39 54//54
f 46//46 47//47 61//61
f 61//61 47//47 62//62
f 39//39 40//40 54//54
f 54//54 40//40 55//55
f 47//47 48//48 62//62
f 62//62 48//48 63//63
f 40//40 41//41 55//55
f 55//55 41//41 56//56
f 48//48 49//49 63//63
f 63//63 49//49 64//64
f 41//41 42//42 56//56
f 56//56 42//42 57//57
f 49//49 50//50 64//64
f 64//64 50//50 65//65
f 42//42 43//43 57//57
f 57//57 43//43 58//58
f 50//50 51//51 65//65
f 65//65 51//51 66//66
f 43//43 44//44 58//58
f 58//58 44//44 59//59
f 55//55 56//56 70//70
f 70//70 56//56 71//71
f 63//63 64//64 78//78
f 78//78 64//64 79//79
f 56//56 57//57 71//71
f 71//71 57//57 72//72
f 64//64 65//65 79//79
f 79//79 65//65 80//80
f 57//57 58//58 72//72
f 72//72 58//58 73//73
f 65//65 66//66 80//80
f 80//80 66//66 81//81
f 58//58 59//59 73//73
f 73//73 59//59 74//74
f 82//82 52//52 67//67
f 66//66 248//248 81//81
f 59//59 60//60 74//74
f 74//74 60//60 75//75
f 52//52 53//53 67//67
f 67//67 53//53 68//68
f 60//60 61//61 75//75
f 75//75 61//61 76//76
f 53//53 54//54 68//68
f 68//68 54//54 69//69
f 61//61 62//62 76//76
f 76//76 62//62 77//77
f 54//54 55//55 69//69
f 69//69 55//55 70//70
f 62//62 63//63 77//77
f 77//77 63//63 78//78
f 74//74 75//75 90//90
f 90//90 75//75 91//91
f 67//67 68//68 83//83
f 83//83 68//68 84//84
f 75//75 76//76 91//91
f 91//91 76//76 92//92
f 68//68 69//69 84//84
f 84//84 69//69 85//85
f 76//76 77//77 92//92
f 92//92 77//77 93//93
f 69//69 70//70 85//85
f 85//85 70//70 86//86
f 77//77 78//78 93//93
f 93//93 78//78 94//94
f 70//70 71//71 86//86
f 86//86 71//71 87//87
f 78//78 79//79 94//94
f 94//94 79//79 95//95
f 71//71 72//72 87//87
f 87//87 72//72 88//88
f 79//79 80//80 95//95
f 95//95 80//80 96//96
f 72//72 73//73 88//88
f 88//88 73//73 89//89
f 80//80 81//81 96//96
f 96//96 81//81 97//97
f 73//73 74//74 89//89
f 89//89 74//74 90//90
f 82//82 67//67 83//83
f 81//81 248//248 97//97
f 94//94 95//95 109//109
f 109//109 95//95 110//110
f 87//87 88//88 102//102
f 102//102 88//88 103//103
f 95//95 96//96 110//110
f 110//110 96//96 111//111
f 88//88 89//89 103//103
f 103//103 89//89 104//104
f 96//96 97//97 111//111
f 111//111 97//97 112//112
f 89//89 90//90 104//104
f 104//104 90//90 105//105
f 82//82 83//83 98//98
f 97//97 248//248 112//112
f 90//90 91//91 105//105
f 105//105 91//91 106//106
f 83//83 84//84 98//98
f 98//98 84//84 99//99
f 91//91 92//92 106//106
f 106//106 92//92 107//107
f 84//84 85//85 99//99
f 99//99 85//85 100//100
f 92//92 93//93 107//107
f 107//107 93//93 108//108
f 85//85 86//86 100//100
f 100//100 86//86 101//101
f 93//93 94//94 108//108
f 108//108 94//94 109//109
f 86//86 87//87 101//101
f 101//101 87//87 102//102
f 106//106 107//107 121//121
f 121//121 107//107 122//122
f 99//99 100//100 114//114
f 114//114 100//100 115//115
f 107//107 108//108 122//122
f 122//122 108//108 123//123
f 100//100 101//101 115//115
f 115//115 101//101 116//116
f 108//108 109//109 123//123
f 123//123 109//109 124//124
f 101//101 102//102 116//116
f 116//116 102//102 117//117
f 109//109 110//110 124//124
f 124//124 110//110 125//125
f 102//102 103//103 117//117
f 117//117 103//103 118//118
f 110//110 111//111 125//125
f 125//125 111//111 126//126
f 103//103 104//104 118//118
f 118//118 104//104 119//119
f 111//111 112//112 126//126
f 126//126 112//112 127//127
f 104//104 105//105 119//119
f 119//119 105//105 120//120
f 82//82 98//98 113//113
f 112//112 248//248 127//127
f 105//105 106//106 120//120
f 120//120 106//106 121//121
f 98//98 99//99 113//113
f 113//113 99//99 114//114
f 125//125 126//126 140//140
f 140//140 126//126 141//141
f 118//118 119//119 133//133
f 133//133 119//119 134//134
f 126//126 127//127 141//141
f 141//141 127//127 142//142
f 119//119 120//120 134//134
f 134//134 120//120 135//135
f 82//82 113//113 128//128
f 127//127 248//248 142//142
f 120//120 121//121 135//135
f 135//135 121//121 136//136
f 113//113 114//114 128//128
f 128//128 114//114 129//129
f 121//121 122//122 136//136
f 136//136 122//122 137//137
f 114//114 115//115 129//129
f 129//129 115//115 130//130
f 122//122 123//123 137//137
f 137//137 123//123 138//138
f 115//115 116//116 130//130
f 130//130 116//116 131//131
f 123//123 124//124 138//138
f 138//138 124//124 139//139
f 116//116 117//117 131//131
f 131//131 117//117 132//132
f 124//124 125//125 139//139
f 139//139 125//125 140//140
f 117//117 118//118 132//132
f 132//132 118//118 133//133
f 129//129 130//130 144//144
f 144//144 130//130 145//145
f 137//137 138//138 152//152
f 152//152 138//138 153//153
f 130//130 131//131 145//145
f 145//145 131//131 146//146
f 138//138 139//139 153//153
f 153//153 139//139 154//154
f 131//131 132//132 146//146
f 146//146 132//132 147//147
f 139//139 140//140 154//154
f 154//154 140//140 155//155
f 132//132 133//133 147//147
f 147//147 133//133 148//148
f 140//140 141//141 155//155
f 155//155 141//141 156//156
f 133//133 134//134 148//148
f 148//148 134//134 149//149
f 141//141 142//142 156//156
f 156//156 142//142 157//157
f 134//134 135//135 149//149
f 149//149 135//135 150//150
f 82//82 128//128 143//143
f 142//142 248//248 157//157
f 135//135 136//136 150//150
f 150//150 136//136 151//151
f 128//128 129//129 143//143
f 143//143 129//129 144//144
f 136//136 137//137 151//151
f 151//151 137//137 152//152
f 148//148 149//149 163//163
f 163//163 149//149 164//164
f 156//156 157//157 171//171
f 171//171 157//157 172//172
f 149//149 150//150 164//164
f 164//164 150//150 165//165
f 82//82 143//143 158//158
f 157//157 248//248 172//172
f 150//150 151//151 165//165
f 165//165 151//151 166//166
f 143//143 144//144 158//158
f 158//158 144//144 159//159
f 151//151 152//152 166//166
f 166//166 152//152 167//167
f 144//144 145//145 159//159
f 159//159 145//145 160//160
f 152//152 153//153 167//167
f 167//167 153//153 168//168
f 145//145 146//146 160//160
f 160//160 146//146 161//161
f 153//153 154//154 168//168
f 168//168 154//154 169//169
f 146//146 147//147 161//161
f 161//161 147//147 162//162
f 154//154 155//155 169//169
f 169//169 155//155 170//170
f 147//147 148//148 162//162
f 162//162 148//148 163//163
f 155//155 156//156 170//170
f 170//170 156//156 171//171
f 167//167 168//168 182//182
f 182//182 168//168 183//183
f 160//160 161//161 175//175
f 175//175 161//161 176//176
f 168//168 169//169 183//183
f 183//183 169//169 184//184
f 161//161 162//162 176//176
f 176//176 162//162 177//177
f 169//169 170//170 184//184
f 184//184 170//170 185//185
f 162//162 163//163 177//177
f 177//177 163//163 178//178
f 170//170 171//171 185//185
f 185//185 171//171 186//186
f 163//163 164//164 178//178
f 178//178 164//164 179//179
f 171//171 172//172 186//186
f 186//186 172//172 187//187
f 164//164 165//165 179//179
f 179//179 165//165 180//180
f 82//82 158//158 173//173
f 172//172 248//248 187//187
f 165//165 166//166 180//180
f 180//180 166//166 181//181
f 158//158 159//159 173//173
f 173//173 159//159 174//174
f 166//166 167//167 181//181
f 181//181 167//167 182//182
f 159//159 160//160 174//174
f 174//174 160//160 175//175
f 186//186 187//187 201//201
f 201//201 187//187 202//202
f 179//179 180//180 194//194
f 194//194 180//180 195//195
f 82//82 173//173 188//188
f 187//187 248//248 202//202
f 180//180 181//181 195//195
f 195//195 181//181 196//196
f 173//173 174//174 188//188
f 188//188 174//174 189//189
f 181//181 182//182 196//196
f 196//196 182//182 197//197
f 174//174 175//175 189//189
f 189//189 175//175 190//190
f 182//182 183//183 197//197
f 197//197 183//183 198//198
f 175//175 176//176 190//190
f 190//190 176//176 191//191
f 183//183 184//184 198//198
f 198//198 184//184 199//199
f 176//176 177//177 191//191
f 191//191 177//177 192//192
f 184//184 185//185 199//199
f 199//199 185//185 200//200
f 177//177 178//178 192//192
f 192//192 178//178 193//193
f 185//185 186//186 200//200
f 200//200 186//186 201//201
f 178//178 179//179 193//193
f 193//193 179//179 194//194
f 190//190 191//191 205//205
f 205//205 191//191 206//206
f 198//198 199//199 213//213
f 213//213 199//199 214//214
f 191//191 192//192 206//206
f 206//206 192//192 207//207
f 199//199 200//200 214//214
f 214//214 200//200 215//215
f 192//192 193//193 207//207
f 207//207 193//193 208//208
f 200//200 201//201 215//215
f 215//215 201//201 216//216
f 193//193 194//194 208//208
f 208//208 194//194 209//209
f 201//201 202//202 216//216
f 216//216 202//202 217//217
f 194//194 195//195 209//209
f 209//209 195//195 210//210
f 82//82 188//188 203//203
f 202//202 248//248 217//217
f 195//195 196//196 210//210
f 210//210 196//196 211//211
f 188//188 189//189 203//203
f 203//203 189//189 204//204
f 196//196 197//197 211//211
f 211//211 197//197 212//212
f 189//189 190//190 204//204
f 204//204 190//190 205//205
f 197//197 198//198 212//212
f 212//212 198//198 213//213
f 209//209 210//210 224//224
f 224//224 210//210 225//225
f 82//82 203//203 218//218
f 217//217 248//248 232//232
f 210//210 211//211 225//225
f 225//225 211//211 226//226
f 203//203 204//204 218//218
f 218//218 204//204 219//219
f 211//211 212//212 226//226
f 226//226 212//212 227//227
f 204//204 205//205 219//219
f 219//219 205//205 220//220
f 212//212 213//213 227//227
f 227//227 213//213 228//228
f 205//205 206//206 220//220
f 220//220 206//206 221//221
f 213//213 214//214 228//228
f 228//228 214//214 229//229
f 206//206 207//207 221//221
f 221//221 207//207 222//222
f 214//214 215//215 229//229
f 229//229 215//215 230//230
f 207//207 208//208 222//222
f 222//222 208//208 223//223
f 215//215 216//216 230//230
f 230//230 216//216 231//231
f 208//208 209//209 223//223
f 223//223 209//209 224//224
f 216//216 217//217 231//231
f 231//231 217//217 232//232
f 228//228 229//229 243//243
f 243//243 229//229 244//244
f 221//221 222//222 236//236
f 236//236 222//222 237//237
f 229//229 230//230 244//244
f 244//244 230//230 245//245
f 222//222 223//223 237//237
f 237//237 223//223 238//238
f 230//230 231//231 245//245
f 245//245 231//231 246//246
f 223//223 224//224 238//238
f 238//238 224//224 239//239
f 231//231 232//232 246//246
f 246//246 232//232 247//247
f 224//224 225//225 239//239
f 239//239 225//225 240//240
f 82//82 218//218 233//233
f 232//232 248//248 247//247
f 225//225 226//226 240//240
f 240//240 226//226 241//241
f 218//218 219//219 233//233
f 233//233 219//219 234//234
f 226//226 227//227 241//241
f 241//241 227//227 242//242
f 219//219 220//220 234//234
f 234//234 220//220 235//235
f 227//227 228//228 242//242
f 242//242 228//228 243//243
f 220//220 221//221 235//235
f 235//235 221//221 236//236
# 480 faces, 0 coords texture

# End of File
